# xmcd
#
# Track frame offsets:
#	150
#	13590
#	27282
#	40227
#	54835
#	67202
#	77877
#	89422
#	101590
#	115015
#	129125
#	142737
#	154055
#	167625
#	181592
#	194022
#	206225
#	219882
#	232900
#	245635
#
# Disc length: 3461 seconds
#
# Revision: 4
# Processed by: cddbd v1.5.2PL0 Copyright (c) Steve Scherf et al.
# Submitted via: AudioConverter v8.05 Copyright (c) D.R. Software
#
DISCID=070d8314
DTITLE=Various Artist - The Blues Collection #80
DYEAR=1900
DGENRE=Blues
TTITLE0=Catfish Blues - Robert Petway
TTITLE1=Louise Louise Blues - Johnnie Temple
TTITLE2=Sweet Sixteen - Walter Davis
TTITLE3=Rocks In My Bed - Leroy Carr
TTITLE4=No Good Woman Blues - Scrapper Blackwell
TTITLE5=Mean Devil Blues - Leroy´s Buddy (Bill Gaither)
TTITLE6=Walking The Street - Georgia White
TTITLE7=Swing Out Rhythm - Lonnie Johnson
TTITLE8=Standing By A Lamp Post - Little David
TTITLE9=Let Me Play Your Vendor - Washboard Sam
TTITLE10=Stony Lonesome Graveyard - Leroy´s Buddy (Bill Gaither)
TTITLE11=Working For The P.W.A. - Black Ivory King
TTITLE12=Too Long - Papa Charlie´s Boy
TTITLE13=Original Sweet Patunia (Patootie Blues) - Little David
TTITLE14=Streamline Train - Red Nelson
TTITLE15=Got The Blues For The West End - Lonnie Johnson
TTITLE16=Southern Casey Jones - Jesse James
TTITLE17=Scrifflin' Woman Blues - Lil Johnson
TTITLE18=I Been Dealing With The Devil - Sonny Boy Williamson
TTITLE19=Lonesome Day Blues - Jesse James
EXTD=
EXTT0=
EXTT1=
EXTT2=
EXTT3=
EXTT4=
EXTT5=
EXTT6=
EXTT7=
EXTT8=
EXTT9=
EXTT10=
EXTT11=
EXTT12=
EXTT13=
EXTT14=
EXTT15=
EXTT16=
EXTT17=
EXTT18=
EXTT19=
PLAYORDER=
